# xmcd
#
# Track frame offsets:
# 150
# 12635
# 21497
# 33705
# 38759
# 57144
# 77248
# 86984
# 95248
# 113309
# 124352
# 133281
# 139987
# 142710
# 156699
# 163295
# 177063
# 181779
# 188163
# 204964
# 210600
# 222311
# 235752
# 249573
# 253286
# 275350
#
# Disc length: 3804 seconds
#
# Revision: 1
# Processed by: cddbd v1.5PL3 Copyright (c) Steve Scherf et al.
# Submitted via: inCDius 2.0b9
#
DISCID=8a0eda1a
DTITLE=Luther Wright and The Wrongs - Rebuild The Wall
DYEAR=1900
DGENRE=
TTITLE0=In the Flesh?
TTITLE1=The Thin Ice
TTITLE2=Another Brick in the Wall - part 1
TTITLE3=The Happiest Days of Our Lives
TTITLE4=Another Brick in the Wall - part 2
TTITLE5=Mother
TTITLE6=Goodbye Blue Sky
TTITLE7=Empty Spaces
TTITLE8=Young Lust
TTITLE9=One of My Turns
TTITLE10=Don't Leave Me Now
TTITLE11=Another Brick in the Wall - part 3
TTITLE12=Goodbye Cruel World
TTITLE13=Hey You
TTITLE14=Is There Anybody Out There?
TTITLE15=Nobody Home
TTITLE16=Vera
TTITLE17=Bring the Boys Back Home
TTITLE18=Comfortably Numb
TTITLE19=The Show Must Go On
TTITLE20=In the Flesh
TTITLE21=Run Like Hell
TTITLE22=Waiting for the Worms
TTITLE23=Stop
TTITLE24=The Trial
TTITLE25=Outside the Wall
EXTD=
EXTT0=
EXTT1=
EXTT2=
EXTT3=
EXTT4=
EXTT5=
EXTT6=
EXTT7=
EXTT8=
EXTT9=
EXTT10=
EXTT11=
EXTT12=
EXTT13=
EXTT14=
EXTT15=
EXTT16=
EXTT17=
EXTT18=
EXTT19=
EXTT20=
EXTT21=
EXTT22=
EXTT23=
EXTT24=
EXTT25=
PLAYORDER=
